<svg xmlns="http://www.w3.org/2000/svg" viewBox="0 0 24 24" width="24" height="24">
  <title>apple.terminal</title>
  <path transform="matrix(0.7237772123268307, 0, 0, 0.7237772123268307, -0.16284987277353702, 18.119592875318066)" d="M6.67 2.33L26.94 2.33C29.40 2.33 30.62 1.13 30.62-1.29L30.62-15.61C30.62-18.02 29.40-19.24 26.94-19.24L6.67-19.24C4.22-19.24 2.99-18.02 2.99-15.61L2.99-1.29C2.99 1.13 4.22 2.33 6.67 2.33ZM6.69 0.45C5.52 0.45 4.88-0.18 4.88-1.39L4.88-15.50C4.88-16.72 5.52-17.36 6.69-17.36L26.92-17.36C28.08-17.36 28.73-16.72 28.73-15.50L28.73-1.39C28.73-0.18 28.08 0.45 26.92 0.45ZM8.03-10.18C7.11-9.63 7.89-8.24 8.89-8.87L12.27-10.98C12.94-11.40 12.90-12.40 12.27-12.80L8.89-14.91C7.89-15.54 7.10-14.16 8.03-13.59L10.85-11.89ZM12.97-8.88C12.97-8.47 13.30-8.13 13.72-8.13L18.19-8.13C18.61-8.13 18.94-8.47 18.94-8.88C18.94-9.30 18.61-9.64 18.19-9.64L13.72-9.64C13.30-9.64 12.97-9.30 12.97-8.88Z" fill="white"/>
</svg>